<svg xmlns="http://www.w3.org/2000/svg" viewBox="0 0 512 512">
  <!-- 雨帧品牌方标「律动环」（2026-09-29 定稿，源=design/icons/variants9.html M1，前作「极光取景框」存为 rainframe-aurora.svg）：
       深水暗底 + 56 根径向均衡器柱（青→紫→粉随环流转，高度按正弦律动，音频可视化隐喻）+ 炫彩播放键。
       柱阵已由生成逻辑烘焙为静态线条（Python 复刻 variants9 的 eqBars 公式），改柱形需改脚本重生成。
       改版后需重出全套产物：make_icons.js（PNG 套图）+ build_assets.py（ICO/logo/安装器位图） -->
  <defs>
    <radialGradient id="water1" cx=".5" cy=".42" r=".78">
      <stop offset="0" stop-color="#0e3d50"/>
      <stop offset="1" stop-color="#061a26"/>
    </radialGradient>
    <linearGradient id="iridV" x1="0" y1="0" x2="0" y2="1">
      <stop offset="0" stop-color="#22d3ee"/>
      <stop offset=".5" stop-color="#a78bfa"/>
      <stop offset="1" stop-color="#ff5c8a"/>
    </linearGradient>
    <filter id="soft10" x="-40%" y="-40%" width="180%" height="180%">
      <feGaussianBlur stdDeviation="10"/>
    </filter>
  </defs>
  <rect width="512" height="512" rx="112" fill="url(#water1)"/>
  <circle cx="256" cy="256" r="202" fill="none" stroke="#67e8f9" stroke-width="4" opacity=".14"/>
  <g>
    <line x1="376.0" y1="256.0" x2="397.7" y2="256.0" stroke="rgb(34,211,238)" stroke-width="8" stroke-linecap="round"/>
    <line x1="375.2" y1="269.4" x2="402.8" y2="272.5" stroke="rgb(39,208,238)" stroke-width="8" stroke-linecap="round"/>
    <line x1="373.0" y1="282.7" x2="401.6" y2="289.2" stroke="rgb(44,206,239)" stroke-width="8" stroke-linecap="round"/>
    <line x1="369.3" y1="295.6" x2="396.2" y2="305.0" stroke="rgb(48,203,239)" stroke-width="8" stroke-linecap="round"/>
    <line x1="364.1" y1="308.1" x2="389.1" y2="320.1" stroke="rgb(53,201,240)" stroke-width="8" stroke-linecap="round"/>
    <line x1="357.6" y1="319.8" x2="382.0" y2="335.2" stroke="rgb(58,198,240)" stroke-width="8" stroke-linecap="round"/>
    <line x1="349.8" y1="330.8" x2="374.2" y2="350.2" stroke="rgb(62,196,241)" stroke-width="8" stroke-linecap="round"/>
    <line x1="340.9" y1="340.9" x2="363.9" y2="363.9" stroke="rgb(67,193,241)" stroke-width="8" stroke-linecap="round"/>
    <line x1="330.8" y1="349.8" x2="349.8" y2="373.6" stroke="rgb(72,190,241)" stroke-width="8" stroke-linecap="round"/>
    <line x1="319.8" y1="357.6" x2="332.3" y2="377.4" stroke="rgb(77,188,242)" stroke-width="8" stroke-linecap="round"/>
    <line x1="308.1" y1="364.1" x2="317.3" y2="383.3" stroke="rgb(82,185,242)" stroke-width="8" stroke-linecap="round"/>
    <line x1="295.6" y1="369.3" x2="303.0" y2="390.2" stroke="rgb(86,183,243)" stroke-width="8" stroke-linecap="round"/>
    <line x1="282.7" y1="373.0" x2="288.0" y2="396.3" stroke="rgb(91,180,243)" stroke-width="8" stroke-linecap="round"/>
    <line x1="269.4" y1="375.2" x2="272.5" y2="402.9" stroke="rgb(96,178,244)" stroke-width="8" stroke-linecap="round"/>
    <line x1="256.0" y1="376.0" x2="256.0" y2="409.1" stroke="rgb(100,175,244)" stroke-width="8" stroke-linecap="round"/>
    <line x1="242.6" y1="375.2" x2="238.4" y2="412.3" stroke="rgb(105,172,244)" stroke-width="8" stroke-linecap="round"/>
    <line x1="229.3" y1="373.0" x2="221.0" y2="409.4" stroke="rgb(110,170,245)" stroke-width="8" stroke-linecap="round"/>
    <line x1="216.4" y1="369.3" x2="205.9" y2="399.2" stroke="rgb(115,167,245)" stroke-width="8" stroke-linecap="round"/>
    <line x1="203.9" y1="364.1" x2="194.7" y2="383.3" stroke="rgb(120,165,246)" stroke-width="8" stroke-linecap="round"/>
    <line x1="192.2" y1="357.6" x2="184.8" y2="369.3" stroke="rgb(124,162,246)" stroke-width="8" stroke-linecap="round"/>
    <line x1="181.2" y1="349.8" x2="170.6" y2="363.1" stroke="rgb(129,160,247)" stroke-width="8" stroke-linecap="round"/>
    <line x1="171.1" y1="340.9" x2="154.8" y2="357.2" stroke="rgb(134,157,247)" stroke-width="8" stroke-linecap="round"/>
    <line x1="162.2" y1="330.8" x2="137.8" y2="350.2" stroke="rgb(138,154,247)" stroke-width="8" stroke-linecap="round"/>
    <line x1="154.4" y1="319.8" x2="121.9" y2="340.2" stroke="rgb(143,152,248)" stroke-width="8" stroke-linecap="round"/>
    <line x1="147.9" y1="308.1" x2="110.7" y2="326.0" stroke="rgb(148,149,248)" stroke-width="8" stroke-linecap="round"/>
    <line x1="142.7" y1="295.6" x2="106.8" y2="308.2" stroke="rgb(153,147,249)" stroke-width="8" stroke-linecap="round"/>
    <line x1="139.0" y1="282.7" x2="110.4" y2="289.2" stroke="rgb(158,144,249)" stroke-width="8" stroke-linecap="round"/>
    <line x1="136.8" y1="269.4" x2="118.7" y2="271.5" stroke="rgb(162,142,250)" stroke-width="8" stroke-linecap="round"/>
    <line x1="136.0" y1="256.0" x2="127.7" y2="256.0" stroke="rgb(167,139,250)" stroke-width="8" stroke-linecap="round"/>
    <line x1="136.8" y1="242.6" x2="121.3" y2="240.8" stroke="rgb(170,137,246)" stroke-width="8" stroke-linecap="round"/>
    <line x1="139.0" y1="229.3" x2="114.1" y2="223.6" stroke="rgb(173,136,242)" stroke-width="8" stroke-linecap="round"/>
    <line x1="142.7" y1="216.4" x2="109.3" y2="204.7" stroke="rgb(176,134,238)" stroke-width="8" stroke-linecap="round"/>
    <line x1="147.9" y1="203.9" x2="110.7" y2="186.0" stroke="rgb(180,132,234)" stroke-width="8" stroke-linecap="round"/>
    <line x1="154.4" y1="192.2" x2="119.7" y2="170.4" stroke="rgb(183,131,230)" stroke-width="8" stroke-linecap="round"/>
    <line x1="162.2" y1="181.2" x2="134.9" y2="159.4" stroke="rgb(186,129,226)" stroke-width="8" stroke-linecap="round"/>
    <line x1="171.1" y1="171.1" x2="153.0" y2="153.0" stroke="rgb(189,127,222)" stroke-width="8" stroke-linecap="round"/>
    <line x1="181.2" y1="162.2" x2="170.6" y2="148.9" stroke="rgb(192,126,218)" stroke-width="8" stroke-linecap="round"/>
    <line x1="192.2" y1="154.4" x2="186.2" y2="145.0" stroke="rgb(195,124,214)" stroke-width="8" stroke-linecap="round"/>
    <line x1="203.9" y1="147.9" x2="196.3" y2="132.0" stroke="rgb(198,122,210)" stroke-width="8" stroke-linecap="round"/>
    <line x1="216.4" y1="142.7" x2="206.8" y2="115.3" stroke="rgb(202,121,206)" stroke-width="8" stroke-linecap="round"/>
    <line x1="229.3" y1="139.0" x2="221.0" y2="102.6" stroke="rgb(205,119,202)" stroke-width="8" stroke-linecap="round"/>
    <line x1="242.6" y1="136.8" x2="238.1" y2="97.0" stroke="rgb(208,117,198)" stroke-width="8" stroke-linecap="round"/>
    <line x1="256.0" y1="136.0" x2="256.0" y2="99.1" stroke="rgb(211,116,194)" stroke-width="8" stroke-linecap="round"/>
    <line x1="269.4" y1="136.8" x2="272.8" y2="106.5" stroke="rgb(214,114,190)" stroke-width="8" stroke-linecap="round"/>
    <line x1="282.7" y1="139.0" x2="288.0" y2="115.7" stroke="rgb(217,112,186)" stroke-width="8" stroke-linecap="round"/>
    <line x1="295.6" y1="142.7" x2="302.1" y2="124.3" stroke="rgb(220,110,182)" stroke-width="8" stroke-linecap="round"/>
    <line x1="308.1" y1="147.9" x2="315.7" y2="132.0" stroke="rgb(224,109,178)" stroke-width="8" stroke-linecap="round"/>
    <line x1="319.8" y1="154.4" x2="330.8" y2="136.9" stroke="rgb(227,107,174)" stroke-width="8" stroke-linecap="round"/>
    <line x1="330.8" y1="162.2" x2="349.8" y2="138.4" stroke="rgb(230,105,170)" stroke-width="8" stroke-linecap="round"/>
    <line x1="340.9" y1="171.1" x2="365.8" y2="146.2" stroke="rgb(233,104,166)" stroke-width="8" stroke-linecap="round"/>
    <line x1="349.8" y1="181.2" x2="377.1" y2="159.4" stroke="rgb(236,102,162)" stroke-width="8" stroke-linecap="round"/>
    <line x1="357.6" y1="192.2" x2="384.2" y2="175.4" stroke="rgb(239,100,158)" stroke-width="8" stroke-linecap="round"/>
    <line x1="364.1" y1="203.9" x2="389.1" y2="191.9" stroke="rgb(242,99,154)" stroke-width="8" stroke-linecap="round"/>
    <line x1="369.3" y1="216.4" x2="393.7" y2="207.8" stroke="rgb(246,97,150)" stroke-width="8" stroke-linecap="round"/>
    <line x1="373.0" y1="229.3" x2="397.9" y2="223.6" stroke="rgb(249,95,146)" stroke-width="8" stroke-linecap="round"/>
    <line x1="375.2" y1="242.6" x2="400.1" y2="239.8" stroke="rgb(252,94,142)" stroke-width="8" stroke-linecap="round"/>
  </g>
  <path d="M228 192 V320 L338 256 Z" fill="url(#iridV)" filter="url(#soft10)" opacity=".6"/>
  <path d="M228 192 V320 L338 256 Z" fill="url(#iridV)" stroke="url(#iridV)" stroke-width="26" stroke-linejoin="round"/>
</svg>
